<svg preserveAspectRatio="none" width="100%" height="100%" overflow="visible" style="display: block;" viewBox="0 0 92.8541 92.8541" fill="none" xmlns="http://www.w3.org/2000/svg">
<g id="pencil-svgrepo-com 1">
<path id="Vector" d="M29.1341 51.4341L40.1283 62.4283C40.7349 63.0347 41.718 63.0347 42.3245 62.4283C42.9309 61.8218 42.9309 60.8387 42.3245 60.2321L31.3302 49.2379C30.7237 48.6315 29.7405 48.6315 29.134 49.2379C28.5276 49.8444 28.5276 50.8276 29.1341 51.4341ZM57.831 22.7681L68.7942 33.7315C69.4006 34.3379 70.3837 34.3379 70.9902 33.7315C71.5966 33.125 71.5966 32.1418 70.9902 31.5355L60.027 20.5721C59.4205 19.9657 58.4373 19.9657 57.831 20.5721C57.2246 21.1786 57.2246 22.1618 57.831 22.7681ZM26.929 62.4283L29.1341 64.6334C29.7406 65.2398 30.7237 65.2398 31.3303 64.6334C31.9367 64.0269 31.9367 63.0438 31.3303 62.4372L29.1252 60.2321C28.5186 59.6258 27.5355 59.6258 26.929 60.2321C26.3226 60.8387 26.3226 61.8218 26.929 62.4283ZM51.7747 28.8245L62.7378 39.7876C63.3444 40.394 64.3275 40.394 64.934 39.7876C65.5404 39.1811 65.5404 38.198 64.934 37.5914L53.9709 26.6283C53.3644 26.0219 52.3812 26.0219 51.7747 26.6283C51.1683 27.2348 51.1683 28.2179 51.7747 28.8245Z" fill="var(--fill-0, #404040)"/>
<path id="Vector_2" d="M74.0382 27.4002C74.0399 25.4176 73.2793 23.4197 71.7667 21.9078L71.7589 21.9002L69.554 19.7255L69.5526 19.7269C68.0446 18.2068 66.0505 17.4367 64.069 17.4386C63.0454 17.4381 62.0319 17.6413 61.0877 18.0364C60.1435 18.4315 59.2873 19.0106 58.5692 19.7399L58.5134 19.7996L57.7975 20.6049L51.7746 26.6287L29.1348 49.2366L28.7385 49.9099L24.3594 65.2838C24.2833 65.5499 24.2798 65.8315 24.3493 66.0995C24.4188 66.3674 24.5588 66.6118 24.7548 66.8073C24.9502 67.0032 25.1947 67.1433 25.4626 67.2128C25.7305 67.2823 26.0121 67.2788 26.2782 67.2026L41.6517 62.8231L42.3251 62.4269L64.9347 39.7861L70.9899 33.7316L71.0314 33.6885L71.8079 32.85L71.8042 32.8467C73.2362 31.3957 74.0388 29.4389 74.0382 27.4002ZM69.5703 30.6974L69.5289 30.7403L68.772 31.5578L62.7382 37.591L40.4127 59.9469L28.1107 63.4514L31.6148 51.1488L53.9701 28.8252L60.0268 22.7677L60.0894 22.7014L60.79 21.9131C61.7014 20.9973 62.8777 20.5463 64.0689 20.5443C65.2643 20.5463 66.4458 20.9994 67.3586 21.9223L67.373 21.9367L69.5703 24.1039C70.4801 25.0145 70.9307 26.1995 70.9325 27.4001C70.9308 28.6007 70.4801 29.7861 69.5703 30.6974Z" fill="var(--fill-0, #5D62D8)"/>
</g>
</svg>
